<?xml version="1.0" encoding="UTF-8"?>
<svg id="a" xmlns="http://www.w3.org/2000/svg" viewBox="0 0 150 150">
  <defs>
    <style>
      .cls-1 {
        fill: none;
      }

      .cls-2 {
        fill: #1b1c20;
        fill-rule: evenodd;
      }
    </style>
  </defs>
  <path class="cls-1" d="M0,0H150V150H0V0Z"/>
  <g id="Réteg_2" data-name="Réteg 2">
    <g id="Layer_1" data-name="Layer 1">
      <path class="cls-2" d="M128.84,108.81c-1.46-1.66-27.93-27.86-30.59-30.59-2.66-2.73-1.06-4.46,.4-6.05s24.52-24.74,28.06-28.06c3.54-3.32,4.32-5.12,4.32-7.91V17.38c0-2.99-1.93-3.99-4.39-3.99s-10.91-.13-16.89-.13-6.94,1.81-9.11,3.99-32.92,32.71-37.57,37.5c-4.65,4.79-4.72,.2-4.72-1.53s.1-17.82,0-21.41-.6-4.24-2.4-6.28-9.43-9.33-12.67-12.57-5-1.8-6.4-.59c-1.4,1.21-9.98,9.66-12.82,12.49-2.84,2.83-2.99,4.6-2.99,7.25s.05,82.59,.05,85.93,.95,4.99,2.89,6.94c1.94,1.95,8.56,8.5,12.12,12.07,3.56,3.57,5.58,1.55,7.08,.05s9.72-9.8,12.37-12.49,2.74-4.89,2.74-7.18v-20.32c0-5.12,3.06-2.78,4.69-1.17l38,38.01c2.31,2.29,4.19,3.52,6.98,3.52h17.18c5.39,0,5.92-1.66,5.92-5.19s-.06-12.77,0-16.69-.8-5.13-2.27-6.78Zm-7.47-63.72l-25.65,25.43c-1.71,1.71-3.52,1.76-5.52-.23s-3.83-3.82-4.63-4.79c-1.22-1.35-1.13-3.42,.2-4.65,1.03-1.07,17.08-17.16,17.44-17.52,1.29-1.29,2.5-2.68,5.94-2.73s10.55,0,11.76,.09,4.01,.95,.46,4.41h-.02Zm-14.38-24.75c0-1.24,.25-3.95,4.09-3.95s11.54,.1,13.37,.1,3.46,.93,3.46,3.39,.11,13.15,.11,13.15c0,3.49-1.13,4.41-4.76,4.41s-9.31-.04-12.24-.04-4.02-1.34-4.02-3.95v-13.12ZM24.22,112.43c0-3.17-.03-77.5-.03-79.33s-.12-3.66,2.27-6.14,7.45-7.45,8.38-8.25,3.51-2.15,3.44,2.82c-.07,4.96,0,75.53,0,77.45s.07,4.44-2.02,6.53-7.58,7.58-8.68,8.64-3.36,1.39-3.36-1.74Zm27.86,11.24c-1.76,1.74-9.25,9.38-9.25,9.38-2.47,2.47-3.92,2.31-6.48-.25s-6.54-6.61-8.61-8.68-1.9-3.79-.05-5.64l9.28-9.25c.87-.87,2.97-2.61,5.68,.1s8.08,8.23,9.38,9.53,1.79,3.09,.04,4.81h.01Zm68.94,10.58c-1.52,.04-9.28,.04-12.24,.04s-4.69-1.85-6.05-3.19l-42.68-42.57c-3.47-3.44-4.55-.09-4.54,.38h0v23.4c0,3.14-2.27,2.78-3.37,1.72s-6.6-6.55-8.69-8.66-2.02-4.63-2.02-6.51,.07-72.49,0-77.45c-.07-4.96,2.52-3.62,3.44-2.82s5.98,5.78,8.38,8.25,2.27,4.31,2.27,6.14v29.61c.17,1.08,.66,2.08,1.39,2.88,.79,.89,64.13,64.08,65.24,65.2,2.23,2.21,.37,3.55-1.13,3.58Zm6.94-6.94c-.09,1.22-.97,4-4.42,.46-2.78-2.84-61.61-61.72-62.05-62.18-.93-.93-1.91-2.81,.56-5.29,7.71-7.68,32.62-32.56,37.27-37.29,3.46-3.56,4.34-.78,4.43,.46s.14,8.33,.09,11.76-1.45,4.62-2.71,5.9c0,0-17.89,17.78-18.94,18.83-1.6,1.6-2.62,3.53-1.05,5.51l44.17,44.15c1.29,1.29,2.68,2.5,2.73,5.94s-.02,10.56-.11,11.78l.04-.04Z"/>
    </g>
  </g>
</svg>