<?xml version="1.0" encoding="UTF-8"?>
<svg version="1.1" viewBox="0 0 980 980" width="980" height="980" xmlns="http://www.w3.org/2000/svg">
<path transform="translate(0)" d="m0 0h980v980h-980z" fill="#2D3641"/>
<path transform="translate(320,412)" d="m0 0h36v68l10-5 5-1h13l11 4 7 7 4 11v144l-4 10-5 6-7 4-4 1h-18l-8-3-3-2-1 4h-36v-18l8-1v-210l-8-1z" fill="#E5E5E5"/>
<path transform="translate(320,318)" d="m0 0h343v344h-145l-1-1v-17l1-1h127v-307l-3 1h-303l-1 55-1 1h-17z" fill="#E5E5E5"/>
<path transform="translate(411,414)" d="m0 0h37v143l18-38 10-22-2-1v-18h26v18l-14 1-13 28-6 13 1 8 25 94v3h13v18h-36l-20-77-2-9-1 68h9v18h-45v-18h9v-211h-9z" fill="#E5E5E5"/>
<path transform="translate(365,481)" d="m0 0h7l4 2 3 7v156l-3 6-2 2-6 1-8-3-4-3v-162l5-4z" fill="#303944"/>
</svg>
